<svg width="32" height="32" version="1.1" xmlns="http://www.w3.org/2000/svg" desc="Created with imagetracer.js version 1.2.6"><path fill="rgb(0,115,135)" stroke="rgb(0,115,135)" stroke-width="1" opacity="1" d="M 11.5 6 L 15 6 Q 14 9 17 8 Q 15.7 4.7 20.5 6 L 19 8.5 Q 20.5 12.9 17.5 12 L 15.5 13 L 13 12.5 Q 13.6 7 11.5 6 Z " data-index="0"></path><path fill="rgb(0,115,135)" stroke="rgb(0,115,135)" stroke-width="1" opacity="1" d="M 8 16 Q 13.2 14.3 12 18 L 9.5 17 L 8 17.5 L 8 16 Z " data-index="1"></path><path fill="rgb(0,115,135)" stroke="rgb(0,115,135)" stroke-width="1" opacity="1" d="M 13.5 16 L 16.5 17 L 18 17.5 L 13 18 L 13.5 16 Z " data-index="2"></path><path fill="rgb(0,115,135)" stroke="rgb(0,115,135)" stroke-width="1" opacity="1" d="M 20.5 16 L 22.5 16 Q 24.8 15.3 24 17.5 L 21.5 18 L 20.5 16 Z " data-index="3"></path><path fill="rgb(0,115,135)" stroke="rgb(0,115,135)" stroke-width="1" opacity="1" d="M 6.5 22 L 26 22.5 L 6.5 23 L 6.5 22 Z " data-index="4"></path><path fill="rgb(0,115,135)" stroke="rgb(0,115,135)" stroke-width="1" opacity="1" d="M 10.5 24 L 11.5 25 L 20.5 25 L 22 24.5 L 21.5 26 L 10 26 L 10.5 24 Z " data-index="5"></path><path fill="rgb(13,156,182)" stroke="rgb(13,156,182)" stroke-width="1" opacity="1" d="M 14.5 0 L 18 0.5 L 14.5 1 L 14.5 0 Z " data-index="6"></path><path fill="rgb(13,156,182)" stroke="rgb(13,156,182)" stroke-width="1" opacity="1" d="M 0.5 14 L 1 17.5 L 0 17.5 L 0.5 14 Z " data-index="7"></path><path fill="rgb(13,156,182)" stroke="rgb(13,156,182)" stroke-width="1" opacity="1" d="M 31.5 14 L 32 17.5 L 31 17.5 L 31.5 14 Z " data-index="8"></path><path fill="rgb(13,156,182)" stroke="rgb(13,156,182)" stroke-width="1" opacity="1" d="M 14.5 31 L 18 31.5 L 14.5 32 L 14.5 31 Z " data-index="9"></path><path fill="rgb(0,143,168)" stroke="rgb(0,143,168)" stroke-width="1" opacity="1" d="M 12.5 8 L 13 12.5 L 12 12.5 L 12.5 8 Z " data-index="10"></path><path fill="rgb(0,143,168)" stroke="rgb(0,143,168)" stroke-width="1" opacity="1" d="M 19.5 8 L 20 11.5 L 17.5 13 L 17.5 12 L 19 12 L 19.5 8 Z " data-index="11"></path><path fill="rgb(0,143,168)" stroke="rgb(0,143,168)" stroke-width="1" opacity="1" d="M 5.5 9 L 6 21.5 L 5 21.5 L 5.5 9 Z " data-index="12"></path><path fill="rgb(0,143,168)" stroke="rgb(0,143,168)" stroke-width="1" opacity="1" d="M 26.5 9 L 27 21.5 L 26 21.5 L 26.5 9 Z " data-index="13"></path><path fill="rgb(119,199,213)" stroke="rgb(119,199,213)" stroke-width="1" opacity="1" d="M 26.5 4 L 27.5 6 L 26.5 4 Z " data-index="15"></path><path fill="rgb(119,199,213)" stroke="rgb(119,199,213)" stroke-width="1" opacity="1" d="M 27.5 26 L 26.5 28 L 27.5 26 Z " data-index="17"></path><path fill="rgb(0,59,69)" stroke="rgb(0,59,69)" stroke-width="1" opacity="1" d="M 6 8 L 9 8.5 L 7 9 L 6.5 19 L 6 8 Z " data-index="18"></path><path fill="rgb(0,59,69)" stroke="rgb(0,59,69)" stroke-width="1" opacity="1" d="M 23.5 8 L 26 8.5 L 26 18.5 L 25 18.5 L 25 9.5 L 23.5 9 L 23.5 8 Z " data-index="19"></path><path fill="rgb(0,65,76)" stroke="rgb(0,65,76)" stroke-width="1" opacity="1" d="M 12.5 13 L 20 13.5 L 12.5 14 L 12.5 13 Z " data-index="20"></path><path fill="rgb(0,88,104)" stroke="rgb(0,88,104)" stroke-width="1" opacity="1" d="M 10.5 7 L 12 7.5 L 12 14 L 20.5 14 L 20 12.5 Q 19 8 21.5 7 Q 24.3 8.3 22 9.5 L 22 15 L 10 15 L 9 8.5 L 10.5 7 Z " data-index="21"></path><path fill="rgb(0,88,104)" stroke="rgb(0,88,104)" stroke-width="1" opacity="1" d="M 17.5 16 L 21 17.5 L 18.5 18 L 17.5 16 Z " data-index="22"></path><path fill="rgb(0,88,104)" stroke="rgb(0,88,104)" stroke-width="1" opacity="1" d="M 14.5 23 L 18 23.5 L 14.5 24 L 14.5 23 Z " data-index="23"></path><path fill="rgb(0,73,86)" stroke="rgb(0,73,86)" stroke-width="1" opacity="1" d="M 7.5 19 L 25 19.5 L 7.5 20 L 7.5 19 Z " data-index="24"></path><path fill="rgb(0,52,61)" stroke="rgb(0,52,61)" stroke-width="1" opacity="1" d="M 6.5 19 L 7.5 20 L 15 20 L 14.5 22 L 6 22 L 6.5 19 Z " data-index="25"></path><path fill="rgb(0,52,61)" stroke="rgb(0,52,61)" stroke-width="1" opacity="1" d="M 25.5 19 L 26 22 L 17.5 22 L 17 20 L 24.5 20 L 25.5 19 Z " data-index="26"></path><path fill="rgb(0,52,61)" stroke="rgb(0,52,61)" stroke-width="1" opacity="1" d="M 14.5 24 L 18 24.5 L 14.5 25 L 14.5 24 Z " data-index="27"></path><path fill="rgb(213,238,242)" stroke="rgb(213,238,242)" stroke-width="1" opacity="1" d="M 24.5 2 L 25.5 4 L 24.5 2 Z " data-index="29"></path><path fill="rgb(213,238,242)" stroke="rgb(213,238,242)" stroke-width="1" opacity="1" d="M 28.5 6 L 29.5 8 L 28.5 6 Z " data-index="31"></path><path fill="rgb(213,238,242)" stroke="rgb(213,238,242)" stroke-width="1" opacity="1" d="M 2.5 24 L 3.5 26 L 2.5 24 Z " data-index="32"></path><path fill="rgb(213,238,242)" stroke="rgb(213,238,242)" stroke-width="1" opacity="1" d="M 6.5 28 L 7.5 30 L 6.5 28 Z " data-index="34" style="visibility: hidden;"></path><path fill="rgb(213,238,242)" stroke="rgb(213,238,242)" stroke-width="1" opacity="1" d="M 25.5 28 L 24.5 30 L 25.5 28 Z " data-index="35"></path><path fill="rgb(0,150,177)" stroke="rgb(0,150,177)" stroke-width="1" opacity="1" d="M 6.5 7 L 5.5 9 L 6.5 7 Z " data-index="36"></path><path fill="rgb(0,150,177)" stroke="rgb(0,150,177)" stroke-width="1" opacity="1" d="M 25.5 7 L 26.5 9 L 25.5 7 Z " data-index="37"></path><path fill="rgb(0,150,177)" stroke="rgb(0,150,177)" stroke-width="1" opacity="1" d="M 8.5 9 L 10 9.5 L 8 10 L 8 17.5 L 9.5 18 L 9.5 19 L 7 18.5 L 7 10.5 L 8.5 9 Z " data-index="38"></path><path fill="rgb(0,150,177)" stroke="rgb(0,150,177)" stroke-width="1" opacity="1" d="M 22.5 9 L 25 10.5 L 25 19 L 21.5 19 L 21.5 18 L 24 18 L 24 10 L 22.5 9 Z " data-index="39"></path><path fill="rgb(0,150,177)" stroke="rgb(0,150,177)" stroke-width="1" opacity="1" d="M 11.5 18 L 17 18.5 L 11.5 19 L 11.5 18 Z " data-index="40"></path><path fill="rgb(255,255,255)" stroke="rgb(255,255,255)" stroke-width="1" opacity="1" d="M 21.5 0 L 32 0 L 32 10.5 L 31 10.5 Q 29.6 4.4 24.5 2 Q 20.7 1.7 21.5 0 Z " data-index="42" style="visibility: hidden;"></path><path fill="rgb(255,255,255)" stroke="rgb(255,255,255)" stroke-width="1" opacity="1" d="M 31.5 21 L 32 32 L 21 31.5 L 30 24.5 L 31.5 21 Z " data-index="44" style="visibility: hidden;"></path><path fill="rgb(0,151,178)" stroke="rgb(0,151,178)" stroke-width="1" opacity="1" d="M 12.5 1 Q 24 0 28 6.5 Q 32.2 10.3 31 19.5 L 25.5 28 Q 21.7 32.2 12.5 31 L 4 25.5 Q -0.2 21.7 1 12.5 L 6.5 4 L 12.5 1 Z M 11 6 L 7 7 L 5 9 L 5 22 L 7 23 L 13 24 L 11 24 L 10 26 L 23 26 L 20 24 L 20 23 L 27 23 L 27 9 Q 22 4 11 6 Z " data-index="45"></path><path fill="rgb(0,151,178)" stroke="rgb(0,151,178)" stroke-width="1" opacity="1" d="M 8 10 L 10 10 L 10 15 L 22 15 L 22 10 L 24 10 L 24 15.5 L 22.5 16 L 20.5 16 Q 15.8 14.8 14.5 17 L 8 16 L 8 10 Z " data-index="46"></path></svg>